<?xml version="1.0" encoding="UTF-8" standalone="no"?>
<!-- Created with Inkscape (http://www.inkscape.org/) -->

<svg
   width="100mm"
   height="75mm"
   viewBox="0 0 100 75"
   version="1.1"
   id="svg5"
   inkscape:version="1.1.1 (3bf5ae0d25, 2021-09-20)"
   sodipodi:docname="logomobile.svg"
   xmlns:inkscape="http://www.inkscape.org/namespaces/inkscape"
   xmlns:sodipodi="http://sodipodi.sourceforge.net/DTD/sodipodi-0.dtd"
   xmlns="http://www.w3.org/2000/svg"
   xmlns:svg="http://www.w3.org/2000/svg">
  <sodipodi:namedview
     id="namedview7"
     pagecolor="#ffffff"
     bordercolor="#666666"
     borderopacity="1.0"
     inkscape:pageshadow="2"
     inkscape:pageopacity="0.0"
     inkscape:pagecheckerboard="0"
     inkscape:document-units="mm"
     showgrid="false"
     inkscape:zoom="0.64052329"
     inkscape:cx="231.84169"
     inkscape:cy="311.46408"
     inkscape:window-width="1280"
     inkscape:window-height="961"
     inkscape:window-x="1358"
     inkscape:window-y="-8"
     inkscape:window-maximized="1"
     inkscape:current-layer="layer1"
     height="100mm" />
  <defs
     id="defs2" />
  <g
     inkscape:label="Vrstva 1"
     inkscape:groupmode="layer"
     id="layer1">
    <text
       class="cls-2"
       id="text28"
       x="9.6685791"
       y="66.99514"
       style="font-size:10.498px;font-family:CenturyGothic, 'Century Gothic';fill:#000000;fill-opacity:1;stroke-width:0.0926806">Těrlická plachta</text>
    <path
       class="cls-1"
       d="m 78.272002,49.300475 c -0.06117,0.04729 -0.556087,0.422627 -0.747011,0.523652 -1.449532,0.773886 -3.111304,1.084363 -4.743409,1.27714 -1.595041,0.185361 -3.209552,0.08434 -4.811074,-0.02041 -1.635818,-0.104727 -3.267932,-0.212239 -4.89263,-0.415211 -2.182637,-0.270632 -5.017757,-0.547751 -6.521047,-0.888808 -1.77391,-0.398528 -3.469968,-0.966669 -5.260571,-1.290129 -6.487669,-1.186317 -13.385918,-2.19654 -19.941247,-1.865665 -1.390215,0.18536 -3.232714,0.334576 -4.624783,0.520866 1.983374,1.658992 5.057604,3.608071 7.523846,4.388445 0.722912,0.229849 1.453238,0.418918 2.189126,0.595019 a 53.235979,53.235979 0 0 0 10.325592,1.462501 c 2.915741,0.121416 6.314357,0.172386 9.22732,0 3.064035,-0.178874 7.003905,-0.445797 7.003905,-0.445797 0,0 -3.178952,0.949058 -5.804612,1.223398 -3.790649,0.398527 -7.609112,0.472662 -11.420154,0.479149 a 29.42808,29.42808 0 0 1 -3.090911,-0.134387 c -0.741449,-0.07507 -1.45324,-0.132533 -2.186348,-0.243747 -8.526651,-1.31422 -10.658316,-2.216003 -15.231197,-5.091899 -1.28734,-0.810959 -2.716481,-2.17893 -3.034378,-3.669237 3.139107,-0.83413 6.808349,-0.861014 10.058673,-0.932375 q 1.059344,-0.02503 2.121469,-0.04729 c 0.517159,-0.0139 1.03432,-0.02318 1.55148,-0.0066 1.148318,0.03339 1.716453,0.07044 3.03345,0.172386 1.878644,0.1418 3.997331,0.273411 5.855589,0.611689 1.743327,0.320686 3.490357,0.64136 5.206821,1.090858 1.891612,0.493065 3.817529,1.063979 5.706363,1.560746 2.502392,0.658965 5.014053,1.000035 7.595214,1.237295 0.993545,0.09269 1.685864,0.141806 2.558002,0.199263 1.493088,0.09732 2.942621,0.361462 4.470004,0.381846 0.604273,0.0066 1.098268,-0.02411 1.679374,-0.038 2.661807,-0.05743 3.151155,-0.06673 4.682251,-0.337362 0.371653,-0.06395 1.418949,-0.277112 1.520893,-0.297503 z"
       id="path30"
       style="fill:#000000;fill-opacity:1;stroke-width:0.0926806" />
    <path
       class="cls-1"
       d="m 70.821378,43.253041 c 0.443015,0.544037 3.849038,4.43571 4.227174,5.030723 -3.020472,-1.568163 -3.50056,-1.740548 -6.558105,-3.020468 -1.506995,-0.632093 -3.000074,-1.321638 -4.527474,-1.683092 -1.841567,-0.429111 -1.476403,-0.361455 -3.236415,-0.648768 -2.142785,-0.344776 -3.020479,-0.375357 -5.964026,-0.547742 -0.698817,-0.03983 -1.121442,-0.07044 -1.996351,0.07507 -0.989833,-2.307761 -1.547772,-5.365305 -2.044537,-7.615603 -0.334588,-1.506994 -0.702529,-3.504267 -0.766482,-5.034433 -0.06393,-1.530161 -0.20297,-4.584929 -0.15199,-5.402376 0.03339,-0.51716 -0.0073,-1.429142 0.05378,-2.551509 0.05101,-0.854519 0,-2.020446 0.07416,-2.848088 0.149212,-1.729427 0.365163,-3.263299 0.675642,-4.973264 a 27.859917,27.859917 0 0 1 0.76091,-3.104814 c 0,0 1.523679,-3.6460709 1.425439,-3.1511549 -0.662669,3.2911039 1.882344,9.9910149 2.334635,11.1124549 1.797085,4.453323 0.509745,1.482897 1.632114,3.564513 0.398525,0.741448 1.439338,3.625682 2.472735,4.919507 0.439302,0.547748 2.334635,3.558025 2.70351,4.342109 0.463396,0.979635 2.502384,3.743386 2.844381,4.226254 3.108517,4.347669 2.64604,3.140957 6.040943,7.310681 z m 0.237258,1.901814 c -3.098331,-3.614563 -7.692528,-7.692526 -9.167071,-9.855703 -0.47917,-0.70252 -2.624733,-3.807336 -3.03346,-4.558055 -1.848057,-3.37822 -3.190089,-5.821292 -4.182692,-7.848226 -0.601503,-1.229878 -1.112175,-3.307786 -1.422653,-4.486689 -0.578328,-2.149273 -0.979647,-4.520981 -1.000028,-6.352358 -0.08805,1.722941 -0.777594,3.449588 -0.753501,7.014101 0,0.311408 0.07043,1.135342 0.09268,2.389316 0.07782,4.5942 0.370719,5.168823 0.479153,6.439477 0.22985,2.662729 0.395755,4.665562 1.019491,7.274533 0.114933,0.476382 0.172387,1.314219 0.358681,1.682161 l 0.449504,1.993573 0.773883,0.141799 c 0.797065,0.141804 0.590382,0.08805 1.178905,0.215947 0.496772,0.10844 0.983342,0.229849 1.273441,0.321604 0.482866,0.158483 7.010395,1.834156 13.933663,5.62852 z"
       id="path32"
       style="fill:#000000;fill-opacity:1;stroke-width:0.0926806" />
    <path
       class="cls-1"
       d="m 49.326796,4.3677868 c 1.172415,-0.5208673 3.21973,-1.6682582 4.550634,-1.4495307 -0.719206,1.1316355 -1.575578,2.0806896 -2.152054,3.361541 -1.989869,4.3717639 -4.112257,8.9233289 -4.520984,13.7103029 -0.07043,0.83413 -0.114925,1.541286 -0.236332,2.372635 -0.09824,0.692328 0.01665,1.530163 -0.04362,2.224345 -0.0649,0.763691 0.01015,1.452313 0.08804,2.216003 0.597799,5.777737 1.986165,11.440546 4.42553,16.715025 0.297499,0.63857 0.675642,1.678451 1.050992,2.273463 -3.233637,-0.722915 -6.59517,-1.540356 -9.882569,-1.952792 -1.557965,-0.195552 -3.118716,-0.388332 -4.685952,-0.445791 -1.781329,-0.06488 -3.561732,0.05005 -5.338426,0.164971 -2.402293,0.155706 -4.70727,0.331796 -7.078978,0.726621 -0.68862,0.114921 -1.26695,0.240039 -1.624698,0.422621 a 39.531239,39.531239 0 0 1 -0.04447,-7.210581 c 0.139021,-1.526455 0.449503,-3.101106 0.777595,-4.597907 a 35.694245,35.694245 0 0 1 1.297533,-4.571952 c 0.370724,-1.033394 0.83413,-2.043617 1.204853,-3.077939 0.297506,-0.823934 0.888812,-1.526456 1.256755,-2.32444 0.730328,-1.575577 1.730355,-3.01306 2.79804,-4.381959 A 47.545367,47.545367 0 0 1 49.326764,4.3677868 Z M 48.184957,10.060256 C 49.195179,8.0768824 50.469546,6.1074101 51.77357,4.3029105 48.096911,6.3372601 44.522205,8.5773604 41.262616,11.226183 a 51.642796,51.642796 0 0 0 -4.558054,4.170646 c -4.010308,4.145623 -7.369068,9.075327 -8.865867,14.643603 -0.679352,2.531118 -1.367972,5.061308 -1.506994,7.67028 -0.02317,0.486579 -0.05098,1.077883 -0.07043,1.564457 -0.02409,0.696033 0.01668,1.952789 0.01668,1.952789 l 0.509745,-0.152 c 0.66545,-0.209455 0.885104,-0.209455 1.517189,-0.344771 0.287311,-0.06117 0.544037,-0.12141 0.777593,-0.172386 5.811101,-1.246563 11.696348,-1.199292 17.338772,0.669157 -0.776674,-4.200305 -1.634896,-8.24861 -1.567244,-12.70379 0.01015,-0.851739 -0.06118,-1.736843 -0.05743,-2.588577 0.01014,-4.034407 0.327166,-8.284759 1.868453,-12.011463 0.526422,-1.262317 0.898076,-2.64419 1.519959,-3.863872 z"
       id="path34"
       style="fill:#000000;fill-opacity:1;stroke-width:0.0926806" />
  </g>
</svg>
