<?xml version="1.0" encoding="UTF-8" standalone="no"?>
<!-- Created with Inkscape (http://www.inkscape.org/) -->

<svg
   width="210mm"
   height="40mm"
   viewBox="0 0 210 40"
   version="1.1"
   id="svg5"
   inkscape:version="1.1.1 (3bf5ae0d25, 2021-09-20)"
   sodipodi:docname="logo.svg"
   xmlns:inkscape="http://www.inkscape.org/namespaces/inkscape"
   xmlns:sodipodi="http://sodipodi.sourceforge.net/DTD/sodipodi-0.dtd"
   xmlns="http://www.w3.org/2000/svg"
   xmlns:svg="http://www.w3.org/2000/svg">
  <sodipodi:namedview
     id="namedview7"
     pagecolor="#ffffff"
     bordercolor="#666666"
     borderopacity="1.0"
     inkscape:pageshadow="2"
     inkscape:pageopacity="0.0"
     inkscape:pagecheckerboard="0"
     inkscape:document-units="mm"
     showgrid="false"
     inkscape:zoom="0.90583672"
     inkscape:cx="425.57339"
     inkscape:cy="289.78733"
     inkscape:window-width="1280"
     inkscape:window-height="961"
     inkscape:window-x="1358"
     inkscape:window-y="-8"
     inkscape:window-maximized="1"
     inkscape:current-layer="layer1"
     height="100mm" />
  <defs
     id="defs2" />
  <g
     inkscape:label="Vrstva 1"
     inkscape:groupmode="layer"
     id="layer1">
    <text
       class="cls-2"
       id="text12"
       x="56.731449"
       y="27.997232"
       style="font-size:16.7489px;font-family:CenturyGothic, 'Century Gothic';fill:#ffffff;fill-opacity:1;stroke-width:0.147866">Těrlická plachta</text>
    <path
       class="cls-1"
       d="m 56.667872,29.524699 a 4.6725829,4.6725829 0 0 1 -0.424377,0.295734 c -0.819181,0.443602 -1.762569,0.615118 -2.685257,0.724542 -0.922686,0.109376 -1.817279,0.04732 -2.723701,-0.01198 -0.906422,-0.05918 -1.852768,-0.121248 -2.772498,-0.235105 -1.234685,-0.147867 -2.840517,-0.31053 -3.696663,-0.504232 -1.005493,-0.224754 -1.968105,-0.547107 -2.979512,-0.730459 -3.675962,-0.671315 -7.581117,-1.243556 -11.292568,-1.055772 -0.788128,0.104943 -1.833545,0.189269 -2.621674,0.295734 1.125265,0.938957 2.865654,2.043523 4.262993,2.485639 0.408112,0.130126 0.822138,0.23659 1.239122,0.337137 a 30.246102,30.246102 0 0 0 5.846643,0.828048 c 1.653148,0.06948 3.576891,0.09763 5.227082,0 1.732995,-0.102069 3.965782,-0.252847 3.965782,-0.252847 0,0 -1.799537,0.538231 -3.287074,0.693489 a 62.949749,62.949749 0 0 1 -6.46029,0.269116 16.475291,16.475291 0 0 1 -1.750739,-0.07535 c -0.416984,-0.04289 -0.823617,-0.07547 -1.237644,-0.139003 -4.829321,-0.739324 -6.03887,-1.253907 -8.625056,-2.883394 -0.730461,-0.458385 -1.537812,-1.233206 -1.718209,-2.077521 1.774399,-0.474654 3.854881,-0.487964 5.69582,-0.527892 l 1.199197,-0.0266 c 0.295733,-0.0072 0.591467,-0.0133 0.8872,0 0.650613,0.01917 0.971483,0.03989 1.715252,0.09764 1.066118,0.08134 2.266794,0.155259 3.318125,0.346014 0.987748,0.181866 1.976976,0.363744 2.948459,0.618076 1.070554,0.279466 2.163287,0.603294 3.232363,0.887204 a 26.065914,26.065914 0 0 0 4.301438,0.700881 c 0.560414,0.05175 0.95226,0.07979 1.446134,0.112371 0.847276,0.05619 1.667936,0.205539 2.532954,0.215889 0.341572,0 0.622518,-0.0133 0.950782,-0.02072 1.508239,-0.03259 1.786228,-0.03845 2.652727,-0.190755 0.202577,-0.04433 0.795522,-0.164136 0.853189,-0.17596 z"
       id="path14"
       style="fill:#ffffff;fill-opacity:1;stroke-width:0.147866" />
    <path
       class="cls-1"
       d="m 52.44776,26.100103 c 0.251373,0.307571 2.181033,2.513744 2.392482,2.84791 -1.707859,-0.887192 -1.981412,-0.98478 -3.711451,-1.709333 -0.854668,-0.357838 -1.698986,-0.748202 -2.564006,-0.95374 a 16.392485,16.392485 0 0 0 -1.833544,-0.36523 c -1.212506,-0.195187 -1.709338,-0.21293 -3.378752,-0.310517 a 4.2275047,4.2275047 0 0 0 -1.131178,0.04289 c -0.557458,-1.307145 -0.873892,-3.038665 -1.156317,-4.313261 a 18.37094,18.37094 0 0 1 -0.433248,-2.850869 c -0.03549,-0.866502 -0.113857,-2.596536 -0.08576,-3.059366 0.01923,-0.295734 0,-0.808831 0.03105,-1.44465 0.02662,-0.48353 0,-1.144483 0.03993,-1.61323 0.08576,-0.978874 0.207015,-1.848335 0.382976,-2.8168582 a 15.985853,15.985853 0 0 1 0.43177,-1.758127 c 0,0 0.86354,-2.0701297 0.805873,-1.7832727 -0.372624,1.8645917 1.067596,5.6588499 1.323404,6.2931949 1.018802,2.522609 0.295734,0.841369 0.924167,2.018377 0.224757,0.419942 0.813266,2.053874 1.401775,2.785806 a 27.503178,27.503178 0 0 1 1.530419,2.45902 c 0.260244,0.5545 1.415082,2.12041 1.610266,2.39397 1.758133,2.45902 1.497889,1.775869 3.420153,4.137301 z m 0.136039,1.076473 c -1.755177,-2.04647 -4.359107,-4.359108 -5.191595,-5.580477 -0.272075,-0.399241 -1.487538,-2.15738 -1.71821,-2.581754 -1.048374,-1.913398 -1.808408,-3.29743 -2.365865,-4.444872 -0.340092,-0.696448 -0.628432,-1.873468 -0.807351,-2.540351 -0.325307,-1.216937 -0.553021,-2.5610402 -0.56485,-3.5975852 -0.05028,0.975915 -0.443599,1.9533152 -0.428814,3.9716922 0,0.17596 0.04289,0.643222 0.05323,1.35298 0.04732,2.602455 0.211449,2.927756 0.272074,3.646391 0.13308,1.508239 0.226236,2.642372 0.579637,4.119559 0.06358,0.270601 0.09759,0.739336 0.202577,0.95374 l 0.252852,1.128226 0.4436,0.08134 c 0.443599,0.07991 0.334178,0.04876 0.668357,0.121248 0.280947,0.06218 0.555978,0.130125 0.71863,0.181878 a 38.741035,38.741035 0 0 1 7.885725,3.188006 z"
       id="path16"
       style="fill:#ffffff;fill-opacity:1;stroke-width:0.147866" />
    <path
       class="cls-1"
       d="m 40.275387,4.0783471 c 0.665399,-0.295734 1.821716,-0.944874 2.578792,-0.820667 -0.408112,0.640263 -0.887199,1.182938 -1.221378,1.903047 -1.125264,2.4767617 -2.327419,5.0540709 -2.558091,7.7644639 -0.03993,0.47318 -0.06654,0.872421 -0.134559,1.344115 -0.05767,0.391849 0.0103,0.866491 -0.02513,1.261299 a 6.3582615,6.3582615 0 0 0 0.05028,1.253907 c 0.338613,3.272296 1.125264,6.479517 2.513731,9.463458 0.167089,0.360797 0.381496,0.950781 0.591466,1.287918 -1.832067,-0.409579 -3.73511,-0.872409 -5.596749,-1.10604 -0.887199,-0.110933 -1.774398,-0.220321 -2.661597,-0.252847 a 29.922275,29.922275 0 0 0 -3.023873,0.0932 39.540993,39.540993 0 0 0 -4.004226,0.414023 3.5207025,3.5207025 0 0 0 -0.919729,0.238064 22.279053,22.279053 0 0 1 -0.01923,-4.082589 21.27356,21.27356 0 0 1 0.4436,-2.60394 20.257716,20.257716 0 0 1 0.739333,-2.589133 c 0.211449,-0.59147 0.473173,-1.157805 0.683143,-1.743356 0.168568,-0.46725 0.505703,-0.865017 0.714196,-1.316011 a 12.948674,12.948674 0 0 1 1.559992,-2.479721 26.930935,26.930935 0 0 1 10.290033,-8.0291469 z m -0.646178,3.2234907 a 25.450791,25.450791 0 0 1 2.037602,-3.2604597 c -2.081961,1.151874 -4.106254,2.420576 -5.954586,3.9214237 a 29.32933,29.32933 0 0 0 -2.580272,2.3658642 c -2.274187,2.345164 -4.181666,5.136888 -5.023026,8.290871 -0.385932,1.434312 -0.774821,2.867138 -0.853191,4.344325 -0.01626,0.275033 -0.03105,0.610685 -0.03993,0.887204 -0.01331,0.393322 0,1.106039 0,1.106039 l 0.295733,-0.08577 a 6.7294064,6.7294064 0 0 1 0.857625,-0.195188 l 0.4436,-0.09764 c 3.292989,-0.706811 6.6259,-0.680192 9.821296,0.378539 -0.443599,-2.379186 -0.925644,-4.671111 -0.887198,-7.195193 0,-0.482045 -0.03254,-0.983306 -0.03254,-1.465363 0,-2.284534 0.186312,-4.691801 1.058724,-6.8018602 0.291298,-0.718623 0.504225,-1.502321 0.856147,-2.192851 z"
       id="path18"
       style="fill:#ffffff;fill-opacity:1;stroke-width:0.147866" />
  </g>
</svg>
